# xmcd CD database file
#
# Track frame offsets:
#	150
#	10494
#	39088
#	51832
#	68394
#	79691
#	91818
#	106362
#	126999
#	138388
#	150017
#	163707
#	174875
#	189200
#	203606
#	213874
#	225431
#	236971
#	251955
#	269646
#	280853
#
# Disc length: 3987 seconds
#
# Revision: 1
# Processed by: cddbd v1.5.2PL0 Copyright (c) Steve Scherf et al.
# Submitted via: CDex 1.51
#
DISCID=0f0f9115
DTITLE=Quincy Jones - Complete Recordings Disc 1
DYEAR=2013
DGENRE=Jazz
TTITLE0=Pleasingly Plump
TTITLE1=G'Wan Train
TTITLE2=Moonglow
TTITLE3=Tone Poem
TTITLE4=You Turned The Tables On Me
TTITLE5=Chinese Checkers
TTITLE6=Our Love is Here to Stay
TTITLE7=The Midnight Sun Will Never Set
TTITLE8=Trouble On My Mind
TTITLE9=A Sunday Kind Of Love
TTITLE10=Hot Sake
TTITLE11=Strike Up the Band
TTITLE12=Africano
TTITLE13=Meadowlands
TTITLE14=Rico Vacilon
TTITLE15=Under Paris Skies
TTITLE16=Mack The Knofe
TTITLE17=Manolete De Espono
TTITLE18=Baia
TTITLE19=Come Back to Sorrento
TTITLE20=Dear Old Stockholm
EXTD=YEAR: 2013
EXTT0=
EXTT1=
EXTT2=
EXTT3=
EXTT4=
EXTT5=
EXTT6=
EXTT7=
EXTT8=
EXTT9=
EXTT10=
EXTT11=
EXTT12=
EXTT13=
EXTT14=
EXTT15=
EXTT16=
EXTT17=
EXTT18=
EXTT19=
EXTT20=
PLAYORDER=
